<?xml version="1.0" encoding="UTF-8"?><svg id="Logo" xmlns="http://www.w3.org/2000/svg" xmlns:xlink="http://www.w3.org/1999/xlink" viewBox="0 0 488.66 104.58"><defs><style>.cls-1{fill:url(#Symbol_Right_Cross_Gradient);}.cls-2{fill:#f68b1f;}.cls-3{fill:#b1c4d4;}.cls-4{fill:#1e355e;}.cls-5{fill:url(#New_Gradient_Swatch_1);}</style><radialGradient id="New_Gradient_Swatch_1" cx="56.18" cy="45" fx="56.18" fy="45" r="45" gradientUnits="userSpaceOnUse"><stop offset="0" stop-color="#acbddd"/><stop offset=".15" stop-color="#a7bbdb"/><stop offset=".3" stop-color="#9bb5d8"/><stop offset=".46" stop-color="#86abd3"/><stop offset=".62" stop-color="#699dcb"/><stop offset=".78" stop-color="#448cc1"/><stop offset=".94" stop-color="#1677b5"/><stop offset="1" stop-color="#036eb0"/></radialGradient><linearGradient id="Symbol_Right_Cross_Gradient" x1="58.89" y1="49.67" x2="112.43" y2="49.67" gradientUnits="userSpaceOnUse"><stop offset=".15" stop-color="#fff"/><stop offset=".3" stop-color="#fbfcfc"/><stop offset=".42" stop-color="#f1f3f4"/><stop offset=".52" stop-color="#e0e3e6"/><stop offset=".63" stop-color="#c9ced3"/><stop offset=".73" stop-color="#aab3ba"/><stop offset=".82" stop-color="#85919c"/><stop offset=".85" stop-color="#778591"/></linearGradient></defs><g><path class="cls-3" d="m58.89,22.61v-4.73c29.8.32,53.54,6.18,53.54,13.37,0,.08-.02.17-.02.25v-.12s.01,1.11-.85,2.22h0s-.01-.01-.02-.02c0,0,0,.01-.02.02-4.58-6.05-26.22-10.69-52.63-10.98Zm52.63,19.23s.01-.01.02-.02c0,.01,0,.01.02.02h0c.86-1.11.85-2.22.85-2.22v.12c0-.08.02-.16.02-.25,0-7.19-23.75-13.05-53.54-13.37v4.74c26.41.28,48.05,4.92,52.63,10.97Zm-57.96-19.23v-4.73C23.75,18.21,0,24.07,0,31.25c0,.08.02.17.03.25v-.12s-.02,1.11.85,2.22h0s0-.01.01-.02c.01,0,.02.01.03.02,4.58-6.05,26.22-10.69,52.63-10.98Zm0,8.25v-4.74C23.75,26.45,0,32.31,0,39.49c0,.09.02.17.03.25v-.12s-.02,1.11.85,2.22h0s0-.01.01-.02c.01.01.02.01.03.02,4.58-6.06,26.22-10.69,52.63-10.97Z"/><path class="cls-5" d="m101.19,44.99c0,24.85-20.15,45.01-45,45.01S11.18,69.84,11.18,44.99,31.33,0,56.18,0s45,20.15,45,44.99Z"/><path class="cls-1" d="m112.41,39.62s.01,1.11-.85,2.22c0,0-.01-.01-.02-.02-4.54,6.06-26.2,10.71-52.64,11v4.74c29.8-.33,53.54-6.18,53.54-13.37,0-.08-.02-.16-.02-.24v-4.32Zm.02-3.68c0-.08-.02-.17-.02-.25v-4.32s.01,1.11-.85,2.22c0,0-.01-.01-.02-.02-4.54,6.06-26.2,10.71-52.64,11v4.74c29.8-.33,53.54-6.19,53.54-13.37Zm-24.88-10.14c-8.63,1.34-17,1.68-17,1.68v4.78c6.2,0,17-1.68,17-1.68v-4.77Zm-17,47.74c6.2,0,17-1.67,17-1.67v-4.77c-8.63,1.34-17,1.68-17,1.68v4.77Zm17-39.45c-8.63,1.34-17,1.67-17,1.67v4.78c6.2,0,17-1.68,17-1.68v-4.77Zm-17,31.15c6.2,0,17-1.67,17-1.67v-4.77c-8.63,1.34-17,1.68-17,1.68v4.77Z"/><path class="cls-4" d="m0,35.94c0,7.18,23.75,13.04,53.55,13.37v-4.74c-26.44-.29-48.1-4.94-52.65-11,0,0,0,.02-.01.02C.01,32.49.03,31.38.03,31.38v4.32c0,.08-.03.16-.03.25Zm0,8.24c0,7.19,23.75,13.04,53.55,13.37v-4.74c-26.44-.29-48.1-4.94-52.65-11,0,.01,0,.01-.01.02C.01,40.73.03,39.62.03,39.62v4.32c0,.09-.03.16-.03.24Zm43.41-11.93c-6.2,0-17-1.68-17-1.68v-4.77c8.63,1.34,17,1.68,17,1.68v4.78Zm0,8.29c-6.2,0-17-1.68-17-1.68v-4.77c8.63,1.34,17,1.67,17,1.67v4.78Zm0,24.7c-6.2,0-17-1.67-17-1.67v-4.77c8.63,1.34,17,1.68,17,1.68v4.77Zm0,8.29c-6.2,0-17-1.67-17-1.67v-4.77c8.63,1.34,17,1.68,17,1.68v4.77Z"/></g><g><g><path class="cls-2" d="m473.27,79.67l.59-.71c.41.34.84.55,1.36.55.41,0,.66-.16.66-.43h0c0-.27-.16-.4-.92-.59-.92-.23-1.51-.49-1.51-1.39h0c0-.84.66-1.38,1.59-1.38.66,0,1.23.21,1.69.58l-.52.75c-.4-.28-.8-.45-1.18-.45s-.58.18-.58.4h0c0,.31.19.41.98.61.92.24,1.44.57,1.44,1.37h0c0,.92-.69,1.42-1.67,1.42-.69,0-1.38-.24-1.93-.73Z"/><path class="cls-2" d="m477.68,75.78h1.08l1.2,1.92,1.2-1.92h1.08v4.55h-.99v-2.97l-1.28,1.94h-.03l-1.27-1.92v2.95h-.98v-4.55Z"/></g><g><path class="cls-2" d="m145.82,74.48h9.66c5.74,0,9.31,3.26,9.31,8.19v.07c0,5.5-4.41,8.37-9.8,8.37h-4.87v7.88h-4.31v-24.5Zm9.31,12.74c3.26,0,5.29-1.82,5.29-4.38v-.07c0-2.87-2.06-4.38-5.29-4.38h-5.01v8.82h5.01Z"/><path class="cls-2" d="m166.53,89.81v-.07c0-5.29,3.75-9.63,9.03-9.63,5.88,0,8.86,4.62,8.86,9.94,0,.38-.04.77-.07,1.19h-13.58c.46,3.01,2.59,4.69,5.32,4.69,2.07,0,3.54-.77,5.01-2.21l2.48,2.21c-1.75,2.1-4.17,3.47-7.56,3.47-5.36,0-9.49-3.89-9.49-9.59Zm13.69-1.37c-.28-2.73-1.89-4.87-4.69-4.87-2.59,0-4.41,2-4.8,4.87h9.49Z"/><path class="cls-2" d="m187.78,80.5h4.24v4.17c1.16-2.77,3.29-4.66,6.55-4.52v4.48h-.25c-3.71,0-6.3,2.42-6.3,7.32v7.04h-4.24v-18.48Z"/><path class="cls-2" d="m202.71,84.14h-2.35v-3.54h2.35v-1.37c0-2.03.52-3.57,1.51-4.55.98-.98,2.35-1.47,4.17-1.47,1.47,0,2.49.21,3.43.49v3.57c-.84-.28-1.58-.46-2.49-.46-1.61,0-2.45.88-2.45,2.8v1.02h4.9v3.5h-4.83v14.84h-4.24v-14.84Z"/><path class="cls-2" d="m212.74,89.84v-.07c0-5.29,4.2-9.66,9.87-9.66s9.84,4.31,9.84,9.59v.07c0,5.25-4.2,9.63-9.91,9.63s-9.8-4.31-9.8-9.56Zm15.47,0v-.07c0-3.26-2.35-5.95-5.67-5.95s-5.57,2.66-5.57,5.88v.07c0,3.22,2.35,5.92,5.64,5.92s5.6-2.66,5.6-5.85Z"/><path class="cls-2" d="m235.77,80.5h4.24v4.17c1.15-2.77,3.29-4.66,6.55-4.52v4.48h-.25c-3.71,0-6.3,2.42-6.3,7.32v7.04h-4.24v-18.48Z"/><path class="cls-2" d="m248.99,80.5h4.24v2.8c1.19-1.65,2.8-3.19,5.64-3.19,2.66,0,4.55,1.3,5.53,3.26,1.47-1.96,3.43-3.26,6.23-3.26,4.03,0,6.48,2.56,6.48,7.07v11.8h-4.24v-10.5c0-2.94-1.37-4.52-3.75-4.52s-3.96,1.61-3.96,4.59v10.43h-4.24v-10.54c0-2.87-1.4-4.48-3.75-4.48s-3.96,1.75-3.96,4.59v10.43h-4.24v-18.48Z"/><path class="cls-2" d="m280.14,93.66v-.07c0-3.99,3.12-5.95,7.63-5.95,2.06,0,3.54.31,4.97.77v-.46c0-2.62-1.61-4.03-4.59-4.03-2.06,0-3.6.46-5.29,1.16l-1.12-3.33c2.03-.91,4.03-1.51,6.97-1.51,2.77,0,4.83.74,6.13,2.07,1.36,1.33,2,3.29,2,5.71v10.96h-4.13v-2.31c-1.26,1.5-3.19,2.7-6.02,2.7-3.47,0-6.55-2-6.55-5.71Zm12.67-1.33v-1.26c-1.09-.42-2.52-.74-4.2-.74-2.73,0-4.34,1.16-4.34,3.08v.07c0,1.79,1.58,2.8,3.61,2.8,2.8,0,4.94-1.61,4.94-3.96Z"/><path class="cls-2" d="m301.07,80.5h4.24v2.84c1.19-1.72,2.91-3.22,5.78-3.22,4.17,0,6.58,2.8,6.58,7.07v11.8h-4.24v-10.5c0-2.87-1.44-4.52-3.96-4.52s-4.17,1.72-4.17,4.59v10.43h-4.24v-18.48Z"/><path class="cls-2" d="m320.81,89.84v-.07c0-5.25,4.06-9.66,9.63-9.66,3.47,0,5.64,1.3,7.39,3.19l-2.66,2.84c-1.29-1.37-2.66-2.31-4.76-2.31-3.08,0-5.36,2.66-5.36,5.88v.07c0,3.29,2.28,5.92,5.53,5.92,2,0,3.47-.91,4.8-2.27l2.56,2.52c-1.82,2.03-3.96,3.47-7.56,3.47-5.5,0-9.56-4.31-9.56-9.56Z"/><path class="cls-2" d="m339.24,89.81v-.07c0-5.29,3.75-9.63,9.03-9.63,5.88,0,8.86,4.62,8.86,9.94,0,.38-.04.77-.07,1.19h-13.58c.45,3.01,2.59,4.69,5.32,4.69,2.07,0,3.54-.77,5.01-2.21l2.49,2.21c-1.75,2.1-4.17,3.47-7.56,3.47-5.36,0-9.49-3.89-9.49-9.59Zm13.69-1.37c-.28-2.73-1.89-4.87-4.69-4.87-2.59,0-4.41,2-4.8,4.87h9.49Z"/><path class="cls-2" d="m370.6,86.8v-.07c0-6.86,5.25-12.67,12.64-12.67,4.27,0,6.9,1.19,9.42,3.33l-2.73,3.26c-1.89-1.61-3.75-2.63-6.86-2.63-4.52,0-7.95,3.96-7.95,8.65v.07c0,5.04,3.33,8.75,8.33,8.75,2.31,0,4.41-.73,5.92-1.85v-4.59h-6.27v-3.75h10.43v10.29c-2.42,2.07-5.88,3.82-10.22,3.82-7.67,0-12.71-5.46-12.71-12.6Z"/><path class="cls-2" d="m398.1,80.5h4.24v4.17c1.16-2.77,3.29-4.66,6.55-4.52v4.48h-.25c-3.71,0-6.3,2.42-6.3,7.32v7.04h-4.24v-18.48Z"/><path class="cls-2" d="m410.18,89.84v-.07c0-5.29,4.2-9.66,9.87-9.66s9.84,4.31,9.84,9.59v.07c0,5.25-4.2,9.63-9.91,9.63s-9.8-4.31-9.8-9.56Zm15.47,0v-.07c0-3.26-2.35-5.95-5.67-5.95s-5.57,2.66-5.57,5.88v.07c0,3.22,2.35,5.92,5.64,5.92s5.6-2.66,5.6-5.85Z"/><path class="cls-2" d="m433.05,92.26v-11.76h4.24v10.5c0,2.87,1.44,4.48,3.96,4.48s4.17-1.68,4.17-4.55v-10.43h4.27v18.48h-4.27v-2.87c-1.19,1.75-2.91,3.26-5.78,3.26-4.17,0-6.58-2.8-6.58-7.11Z"/><path class="cls-2" d="m454.05,80.5h4.24v3.08c1.37-1.93,3.29-3.47,6.3-3.47,4.34,0,8.58,3.43,8.58,9.59v.07c0,6.13-4.2,9.59-8.58,9.59-3.08,0-5.01-1.54-6.3-3.26v8.47h-4.24v-24.08Zm14.81,9.28v-.07c0-3.57-2.42-5.92-5.29-5.92s-5.39,2.38-5.39,5.92v.07c0,3.54,2.52,5.92,5.39,5.92s5.29-2.27,5.29-5.92Z"/></g></g><g><polygon class="cls-4" points="172.85 56 172.85 47.84 188.52 47.84 188.52 40.84 172.85 40.84 172.85 34 189.72 34 189.72 27 165.85 27 165.85 62.99 190.44 63 190.44 56 172.85 56"/><polygon class="cls-4" points="287.83 27 258.18 27 258.18 34 269.54 34 269.54 63 276.54 63 276.54 34 287.83 34 287.83 27"/><polygon class="cls-4" points="356.47 27 326.82 27 326.82 34 338.18 34 338.18 63 345.18 63 345.18 34 356.47 34 356.47 27"/><polygon class="cls-4" points="488.66 27 459.01 27 459.01 34 470.37 34 470.37 63 477.37 63 477.37 34 488.66 34 488.66 27"/><polygon class="cls-4" points="258.2 55.98 241.61 55.98 241.61 27 234.61 27 234.61 63 258.2 63 258.2 55.98"/><polygon class="cls-4" points="152.9 27 152.9 41.29 137.32 41.29 137.32 27 130.32 27 130.32 63 137.32 63 137.32 47.81 152.9 47.81 152.9 63 159.9 63 159.9 27 152.9 27"/><polygon class="cls-4" points="315.12 27 315.12 41.29 299.54 41.29 299.54 27 292.54 27 292.54 63 299.54 63 299.54 47.81 315.12 47.81 315.12 63 322.12 63 322.12 27 315.12 27"/><path class="cls-4" d="m442.24,63.37c-8.25,0-13.67-3.59-14.92-9.89l6.86-1.36c.72,3.63,4.99,4.32,8.45,4.26,3.22-.06,5.74-1.29,6.4-3.14.39-1.09.06-2.16-.76-2.83-.87-.72-2.82-1.34-6.08-1.95-2.71-.51-4.69-1.02-6.3-1.68-3.42-1.4-4.95-3.19-5.93-4.81-1.46-2.42-1.74-5.35-.77-8.04,1.17-3.25,4.26-7.16,12.28-7.3,7.32-.13,12.57,3.33,13.75,9.01l-6.84,1.42c-.68-3.29-5.36-3.47-6.78-3.44-2.03.04-3.38.31-4.18.83-1.31.84-2.41,2.26-1.46,3.91.23.4.65,1.09,2.01,1.77,1.1.55,2.89.95,5.2,1.41,2.73.54,4.31.9,5.97,1.54,2.79,1.08,4.64,2.53,5.86,4.55,1.41,2.34,1.64,5.18.62,7.99-1.69,4.68-6.62,7.65-12.86,7.76-.17,0-.34,0-.5,0Z"/><path class="cls-4" d="m409.06,63.38h-.8c-8.18,0-14.84-6.66-14.84-14.84v-21.55h6.99v21.55c0,4.33,3.52,7.85,7.85,7.85h.8c4.33,0,7.85-3.52,7.85-7.85v-21.54s6.99,0,6.99,0v21.54c0,8.18-6.66,14.84-14.84,14.84Z"/><path class="cls-4" d="m216.22,31.59c-.85-1.54-1.72-3.07-2.6-4.59h-2.2c-.88,1.52-1.75,3.05-2.6,4.59-5.53,10.07-10.36,20.59-14.46,31.41h6.9c1.05-2.7,2.15-5.38,3.3-8.04h15.91c1.15,2.66,2.24,5.34,3.3,8.04h6.9c-4.1-10.82-8.93-21.34-14.46-31.41Zm-8.75,16.91c1.61-3.43,3.29-6.83,5.05-10.17,1.76,3.35,3.45,6.74,5.05,10.17h-10.1Z"/><path class="cls-4" d="m380.74,48.41c4.5-1.26,7.82-5.39,7.82-10.29v-.45c0-5.89-4.79-10.69-10.69-10.69h-16.7v36h7v-14.18h4.65c3.53,4.24,6.55,8.98,9.04,14.18h7.14c-2.28-5.27-5.05-10.14-8.27-14.58Zm-12.57-6.1v-8.82h9.7c2.31,0,4.19,1.88,4.19,4.19v.45c0,2.31-1.88,4.19-4.19,4.19h-9.7Z"/></g></svg>